<?xml version="1.0" encoding="UTF-8"?>
<!DOCTYPE svg PUBLIC "-//W3C//DTD SVG 1.0//EN" "http://www.w3.org/TR/2001/REC-SVG-20010904/DTD/svg10.dtd">
<!-- Creator: CorelDRAW 2020 (64 Bit) -->
<?xml-stylesheet href="icon.css" type="text/css"?>
<svg xmlns="http://www.w3.org/2000/svg" xml:space="preserve" width="0.773335in" height="0.775079in" version="1.0" style="shape-rendering:geometricPrecision; text-rendering:geometricPrecision; image-rendering:optimizeQuality; fill-rule:evenodd; clip-rule:evenodd"
viewBox="0 0 0.1822 0.1827"
 xmlns:xlink="http://www.w3.org/1999/xlink"
 xmlns:xodm="http://www.corel.com/coreldraw/odm/2003">
 <g id="Camada_x0020_1">
  <metadata id="CorelCorpID_0Corel-Layer"/>
  <g id="_1131920624">
   <g>
    <path class="fil0" d="M0.0382 0.1241l0.0072 -0.0001c0.0002,0.0029 0.0007,0.009 -0.0004,0.0115l-0.0068 -0 0 -0.0115zm0.1138 0.0059l0.0073 0.0001 -0.0001 0.0054 -0.0072 -0.0003 0 -0.0051zm-0.0912 -0.006l0.0074 0 -0.0001 0.0057 -0.0072 -0.0001 -0.0001 -0.0056zm0.0912 -0.0234l0.0073 0.0001 -0.0001 0.0171 -0.0072 0 -0.0001 -0.0172zm-0.0451 -0.0059l0.0151 -0.0001 0.0067 0.0002 0.0002 0.0055c-0.0028,0.0005 -0.0361,0.0004 -0.0378,-0.0001l-0.0001 -0.0056 0.0158 0zm-0.0385 -0l0.0152 -0.0001 -0.0005 0.0058 -0.0147 0 0 -0.0058zm0 -0.0115c0.0017,-0.0006 0.0584,-0.0007 0.0605,-0l0.0003 0.0056 -0.0383 -0 -0.0145 -0 -0.008 -0.0001 0 -0.0055zm-0.0226 -0.0119l0.0072 0.0002 0 0.0077 -0 0.0015 0 0.0079 -0.0073 -0.0001 -0.0001 -0.0028 -0 -0.006 0.0001 -0.0084zm0.0989 0.0001c0.0025,-0.0001 0.0049,-0.0003 0.0071,0.0004l0.0001 0.0052 -0.0074 0.0001 0.0002 -0.0057zm-0.0456 -0.0001l0.03 0 -0.0001 0.0058 -0.0302 0.0001 0.0003 -0.0059zm-0.0305 -0.0057l-0 -0.0005 -0.0001 -0.0055 0.0072 0c0.0009,0.0013 0.0007,0.0041 0.0003,0.006l-0 0.0056 0.0153 0 -0.0002 0.0059 -0.0227 0 0.0005 -0.0062c-0.0008,-0.0014 -0.0005,-0.0032 -0.0003,-0.0054zm0.0602 -0.0058l0.0001 0.0056c-0.0027,0.0005 -0.0129,0.0007 -0.0149,-0.0002l-0 -0.0056 0.0148 0.0002zm-0.0374 -0.0002l0.0073 0 0.0077 -0 -0.0001 0.0058c-0.0025,0.0005 -0.0212,0.0006 -0.0226,-0.0004l-0.0001 -0.0053 0.0078 -0.0001zm-0.0455 -0.0115l0.0148 0 -0.0002 0.0174 -0.007 0.0001 -0.0001 -0.0119 -0.0077 -0.0001 0.0001 -0.0054zm0.0976 -0.0008c-0.001,0.0007 -0.0005,0.0004 -0.0029,0.0006 -0.0047,0.0002 -0.0038,-0.001 -0.0037,-0.0057l0.0072 0.0002c-0,0.0018 0.0004,0.004 -0.0007,0.005zm0.016 -0.0168l-0.0147 -0.0002c-0.0005,-0.0021 -0.0005,-0.0038 0.0002,-0.0054l0.0133 0.0001c0.0006,-0.0008 0.001,0.0019 0.001,0.0025 0.0001,0.0011 -0,0.0018 0.0002,0.0031zm-0.0985 -0.0057l0.0053 -0.0001c0.0024,0.0004 0.0022,0.0019 0.0018,0.0056l-0.0072 -0.0001 0.0001 -0.0054zm-0.0226 0.0007c0,-0.004 -0.0017,-0.0067 0.0034,-0.0068 0.0062,-0.0001 0.0026,0.0022 0.0042,0.0058l0.0072 0.0004 -0.0001 0.0054c-0.0056,0.0003 -0.0073,-0.0013 -0.0075,0.0028 -0.0002,0.0046 -0.0008,0.0028 -0.0072,0.0032l0 -0.0107zm0.1213 -0.0184l-0.0003 0.0057 -0.0149 0.0001 -0.0003 -0.006 0.0156 0.0002zm-0.0459 -0.0001l0.0231 0 -0.0002 0.0058 -0.0225 0 -0.0003 -0.0059zm-0.0228 -0l0.0073 0.0001c0.0007,0.0016 0.0005,0.0041 0.0004,0.0058l-0.0074 0 -0.0002 -0.0059zm-0.0605 0.0059c-0.0016,0.0055 -0.0004,0.0279 -0.0004,0.0353 0,0.004 -0.0009,0.0333 0.0007,0.0345 0.0012,0.0007 -0.0007,0.0001 0.0013,0.0004l0.0058 0.0003 -0.0002 0.0054 -0.0074 0.0004c-0.0002,0.0029 -0.0013,0.0098 0.0006,0.0117 0.0005,0.0005 0.0004,0.0002 0.0023,0.0002l0.012 -0c0.0005,0.0025 0.0005,0.0058 0.0004,0.0087 -0.0001,0.0038 -0.0016,0.0028 -0.0071,0.0027l-0.0002 -0.0058c-0.0025,-0.0001 -0.0058,-0.0003 -0.0076,0.0004 -0.001,0.0019 -0.0009,0.0309 -0.0004,0.0348l0.0231 -0.0002 0.0001 -0.0055 0.007 0.0002 0.0004 0.0055 0.0381 -0.0003 0.0002 -0.0055 0.0148 0.0001 0.0002 0.0056 0.0077 -0 0.0002 -0.0175 0.0073 -0.0001 0.0001 -0.0115 0.0072 0.0001 0.0001 0.0291 0.0229 -0.0001 -0 -0.0056 0.0073 -0.0002 -0.0001 -0.0822 -0.0072 -0.0003 -0.0001 -0.0229 0.0057 -0.0001c0.0018,-0.0003 0.0003,0.0002 0.0017,-0.0005l-0.0001 -0.0224 -0.0071 -0.0005 0.0001 -0.0002 -0.0839 0.0002 0 0.0058 -0.0224 0 -0.0006 -0.0058 -0.0145 0.0001 -0.0005 0.0057 -0.0072 0z"/>
    <path class="fil1" d="M0.0152 0.0946l0.0076 -0 0 0.0293 -0.0076 -0.0002 -0.0001 -0.0291zm0 -0.0178l0.0077 0.0001 0 0.0058c-0.0018,0.0007 -0.0052,0.0005 -0.0078,0.0003l0.0001 -0.0062zm0 -0.0115l0.0077 -0.0001 -0.0001 0.0059 -0.0076 -0.0002 0 -0.0056zm0.0001 -0.0293l0.0075 0 -0 0.0234 -0.0075 -0.0001 0 -0.0233zm-0.0075 0.1346l0.0071 -0.0001 0.0004 -0.0113c0.0006,-0.0011 0.005,-0.0007 0.0068,-0.0009l0.0001 -0.0052 -0.007 -0.0001 0.0001 -0.0231 0.0076 -0.0003 -0 0.0235 0.1441 -0.0001 0.0075 -0 -0.0002 -0.1462 -0.0146 -0.0003 -0.0001 0.0002 0.0071 0.0005 0.0001 0.0224c-0.0015,0.0007 0.0001,0.0002 -0.0017,0.0005l-0.0057 0.0001 0.0001 0.0229 0.0072 0.0003 0.0001 0.0822 -0.0073 0.0002 0 0.0056 -0.0229 0.0001 -0.0001 -0.0291 -0.0072 -0.0001 -0.0001 0.0115 -0.0073 0.0001 -0.0002 0.0175 -0.0077 0 -0.0002 -0.0056 -0.0148 -0.0001 -0.0002 0.0055 -0.0381 0.0003 -0.0004 -0.0055 -0.007 -0.0002 -0.0001 0.0055 -0.0231 0.0002c-0.0005,-0.004 -0.0006,-0.0329 0.0004,-0.0348 0.0018,-0.0008 0.0051,-0.0005 0.0076,-0.0004l0.0002 0.0058c0.0054,0.0001 0.007,0.0011 0.0071,-0.0027 0.0001,-0.0029 0.0001,-0.0062 -0.0004,-0.0087l-0.012 0c-0.0019,0 -0.0018,0.0003 -0.0023,-0.0002 -0.0019,-0.0019 -0.0008,-0.0088 -0.0006,-0.0117l0.0074 -0.0004 0.0002 -0.0054 -0.0058 -0.0003c-0.002,-0.0003 -0.0001,0.0003 -0.0013,-0.0004 -0.0016,-0.0012 -0.0007,-0.0306 -0.0007,-0.0345 0,-0.0074 -0.0012,-0.0298 0.0004,-0.0353l0.0002 -0.0059 -0.008 0 0.0001 0.0235 -0.0075 -0.0002 0.0002 -0.0232c-0.0084,-0.0002 -0.0076,-0.001 -0.0076,0.0054l-0 0.0317c0.0001,0.0412 0.001,0.0864 0,0.1268z"/>
    <path class="fil2" d="M0.0071 0.0067l-0.0071 0 0.0001 0.1638 0.0078 0.0001c0.001,-0.0404 0.0001,-0.0856 -0,-0.1268l0 -0.0317c-0.0001,-0.0064 -0.0009,-0.0056 0.0076,-0.0054l0.0072 -0.0001 0.008 -0 0.0451 0.0001 0.0839 -0.0002 0.0146 0.0003 0.0001 -0.0058 -0.1667 -0.0001 0.0001 0.0042c0.0004,0.0029 0.0004,0.0005 -0.0007,0.0016z"/>
    <path class="fil3" d="M0.1365 0.1539c0.0045,-0.0009 0.0109,-0.0004 0.0155,-0.0004l-0.0004 0.0056 -0.0148 -0 -0.0003 -0.0051zm-0.1065 -0.0001c0.0044,-0.0004 0.0115,-0.0006 0.0156,0.0001l-0.0001 0.011c-0.0027,0.0002 -0.005,0.0004 -0.0076,-0.0003l0.0001 -0.0054 -0.0076 -0.0001 -0.0004 -0.0052zm-0.0148 0.0055l-0.0004 0.0113 0.0306 0.0001 0.0001 -0.0059 0.0227 0 0.0001 -0.0059 -0.0152 0.0003 -0.0001 -0.0056 0.0303 0 0.0003 0.0051c0.0028,0.0006 0.0119,0.0005 0.015,0.0001l-0 -0.0052 0.0077 -0.0002 0.0002 0.0056 0.0074 0 -0.0003 -0.0056 0.016 0.0004c-0.0018,0.002 -0.0006,0.008 -0.0007,0.0109 -0.0165,0.0013 -0.025,-0.0041 -0.0224,0.0059l0.0372 -0 0.0005 -0.0058 0.0074 0 0.0002 0.0058 0.0072 0 0.0002 -0.0058 0.0066 -0.0002c0.0013,0.0021 0.001,0.0035 0.0005,0.006l0.0007 -0.0001 -0.0001 -0.0175 -0.1441 0.0001 -0 0.0058 -0.0075 0.0003z"/>
    <polygon class="fil2" points="0.1745,0.1531 0.1822,0.153 0.1822,0.0067 0.175,0.0068 0.1743,0.0069 "/>
    <path class="fil4" d="M0.0455 0.1707l0.0305 0.0001 -0 -0.0059 0.0075 -0.0002 -0.0002 0.0059 0.0234 -0c-0.0026,-0.0099 0.006,-0.0046 0.0224,-0.0059 0.0001,-0.003 -0.0011,-0.009 0.0007,-0.0109l-0.016 -0.0004 0.0003 0.0056 -0.0074 0 -0.0002 -0.0056 -0.0077 0.0002 0 0.0052c-0.0031,0.0004 -0.0122,0.0006 -0.015,-0.0001l-0.0003 -0.0051 -0.0303 -0 0.0001 0.0056 0.0152 -0.0003 -0.0001 0.0059 -0.0227 -0 -0.0001 0.0059z"/>
    <polygon class="fil2" points="0.1745,0.1764 0.0153,0.1767 0.0153,0.1823 0.1744,0.1822 "/>
    <path class="fil5" d="M0.0163 0.1756c0.0009,0.0002 0.1488,0.001 0.157,0.0001 0.0008,-0.0017 0.0006,-0.0027 0.0002,-0.0046l-0.1573 0.0002 0.0001 0.0042z"/>
    <polygon class="fil1" points="0.0153,0.1237 0.0229,0.124 0.0229,0.0946 0.0152,0.0946 "/>
    <polygon class="fil6" points="0.0909,0.0887 0.1292,0.0887 0.1289,0.0831 0.0909,0.083 "/>
    <path class="fil7" d="M0.0163 0.1714l0.1573 -0.0002c0.0004,0.0019 0.0006,0.0028 -0.0002,0.0046 -0.0083,0.0009 -0.1562,0.0001 -0.157,-0.0001l-0.0001 -0.0042zm-0.0014 0.0053l0.0004 -0 0.1592 -0.0003 0.0001 -0.0058 -0.0074 -0 -0.0007 0.0001 -0.0072 0 -0.0072 -0 -0.0081 -0.0001 -0.0372 0 -0.0234 0 -0.0073 0.0001 -0.0305 -0.0001 -0.0306 -0.0001 -0 0.0062z"/>
    <polygon class="fil8" points="0.0305,0.0126 0.0377,0.0126 0.0383,0.007 0.0528,0.0068 0.0534,0.0127 0.0758,0.0126 0.0758,0.0068 0.0307,0.0067 "/>
    <polygon class="fil1" points="0.0223,0.1532 0.0228,0.1532 0.0229,0.1297 0.0153,0.13 0.0152,0.1531 "/>
    <polygon class="fil1" points="0.0153,0.0593 0.0228,0.0595 0.0229,0.0361 0.0154,0.036 "/>
    <polygon class="fil6 str0" points="0.0987,0.077 0.129,0.0769 0.129,0.0712 0.0991,0.0711 "/>
    <polygon class="fil1" points="0.0227,0.0068 0.0154,0.0068 0.0153,0.0301 0.0228,0.0302 "/>
    <path class="fil5" d="M0.0383 0.0253l-0 0.0107c0.0064,-0.0004 0.0071,0.0014 0.0072,-0.0032 0.0002,-0.0042 0.0019,-0.0025 0.0075,-0.0028l0.0001 -0.0054 -0.0072 -0.0004c-0.0016,-0.0035 0.002,-0.0058 -0.0042,-0.0058 -0.0051,0.0001 -0.0034,0.0027 -0.0034,0.0068z"/>
    <polygon class="fil5" points="0.0457,0.0533 0.0533,0.0534 0.0534,0.0653 0.0605,0.0653 0.0606,0.0479 0.0458,0.0479 "/>
    <polygon class="fil8" points="0.114,0.0126 0.1365,0.0126 0.1368,0.0068 0.1137,0.0067 "/>
    <polygon class="fil6" points="0.0759,0.0711 0.0688,0.0708 0.0683,0.077 0.091,0.077 0.0912,0.0711 "/>
    <polygon class="fil2" points="0.1671,0.1706 0.1746,0.1706 0.1745,0.1531 0.167,0.1531 "/>
    <path class="fil4" d="M0.0305 0.1589l0.0076 0.0001 -0.0001 0.0054c0.0026,0.0007 0.0049,0.0005 0.0076,0.0003l0.0001 -0.011c-0.004,-0.0006 -0.0112,-0.0005 -0.0156,-0.0001l0.0004 0.0052z"/>
    <polygon class="fil5" points="0.0457,0.0796 0.0457,0.0856 0.0458,0.0884 0.0531,0.0885 0.053,0.0806 0.053,0.0791 0.053,0.0714 0.0458,0.0712 "/>
    <polygon class="fil5" points="0.1521,0.1178 0.1593,0.1178 0.1594,0.1007 0.1521,0.1006 "/>
    <path class="fil8" d="M0.0764 0.0887l0.0145 0 -0 -0.0057 0.038 0.0001c-0.002,-0.0007 -0.0588,-0.0006 -0.0605,0l0.0075 -0.0001 0.0005 0.0057z"/>
    <path class="fil8" d="M0.0912 0.1002c0.0017,0.0005 0.035,0.0006 0.0378,0.0001l-0.0002 -0.0055 -0.0001 0.0055 -0.0078 -0.0001c0.0005,-0.0013 0.0002,-0.0014 0.0004,-0.003l0.0008 -0.0026 -0.0151 0.0001 -0 0.0056 -0.0157 -0z"/>
    <polygon class="fil8" points="0.1596,0.0069 0.1441,0.0067 0.1444,0.0127 0.1593,0.0126 "/>
    <polygon class="fil6" points="0.0912,0.1002 0.1069,0.1002 0.1069,0.0947 0.0911,0.0946 "/>
    <polygon class="fil6" points="0.0684,0.1005 0.0831,0.1004 0.0836,0.0946 0.0684,0.0947 "/>
    <path class="fil4" d="M0.1368 0.159l0.0148 0 0.0004 -0.0056c-0.0046,-0 -0.0111,-0.0005 -0.0155,0.0004l0.0003 0.0051z"/>
    <path class="fil5" d="M0.0382 0.1355l0.0068 0c0.0011,-0.0025 0.0006,-0.0087 0.0004,-0.0115l-0.0072 0.0001 -0 0.0115z"/>
    <polygon class="fil6" points="0.114,0.065 0.1288,0.0652 0.1288,0.0596 0.1139,0.0594 "/>
    <path class="fil9" d="M0.1743 0.0069l0.0007 -0.0001 -0.0001 -0.0059c-0.0053,-0.0009 -0.1655,-0.0004 -0.1671,0l0.1667 0.0001 -0.0001 0.0058z"/>
    <path class="fil5" d="M0.1594 0.0303c-0.0002,-0.0012 -0.0001,-0.0019 -0.0002,-0.0031 -0,-0.0006 -0.0004,-0.0033 -0.001,-0.0025l-0.0133 -0.0001c-0.0007,0.0016 -0.0007,0.0033 -0.0002,0.0054l0.0147 0.0002z"/>
    <polygon class="fil9" points="0.175,0.1765 0.1745,0.1764 0.1744,0.1822 0.0153,0.1823 0.0153,0.1767 0.0149,0.1767 0.0152,0.1827 0.1748,0.1824 "/>
    <path class="fil8 str0" d="M0.0836 0.0648c0.0014,0.001 0.0201,0.0009 0.0226,0.0004l-0.0077 -0 0.0001 -0.0057 -0.0073 -0 0.0001 0.0057 -0.0077 -0.0004z"/>
    <polygon class="fil4" points="0.1439,0.1706 0.152,0.1707 0.1518,0.1649 0.1444,0.1648 "/>
    <polygon class="fil1" points="0.0229,0.0827 0.0229,0.077 0.0153,0.0768 0.0153,0.0829 "/>
    <polygon class="fil2" points="0.1745,0.1764 0.175,0.1765 0.1822,0.1766 0.1821,0.1707 0.1752,0.1707 0.1746,0.1706 "/>
    <path class="fil8" d="M0.0912 0.0126l0.0074 -0c0.0001,-0.0017 0.0004,-0.0042 -0.0004,-0.0058l-0.0073 -0.0001 0.0002 0.0059z"/>
    <polygon class="fil6" points="0.1062,0.0652 0.1064,0.0594 0.0986,0.0594 0.0985,0.0651 "/>
    <polygon class="fil1" points="0.0153,0.071 0.0229,0.0712 0.023,0.0653 0.0153,0.0653 "/>
    <polygon class="fil3" points="0.076,0.1708 0.0832,0.1707 0.0835,0.1647 0.0759,0.1649 "/>
    <path class="fil4" d="M0.1592 0.1707l0.0072 -0c0.0005,-0.0024 0.0008,-0.0039 -0.0005,-0.006l-0.0066 0.0002 -0.0002 0.0058z"/>
    <polygon class="fil6" points="0.0764,0.0887 0.0759,0.083 0.0684,0.0831 0.0684,0.0886 "/>
    <polygon class="fil6" points="0.0836,0.0648 0.0914,0.0651 0.0913,0.0594 0.0835,0.0594 "/>
    <polygon class="fil2" points="0.0081,0.1766 0.0149,0.1767 0.0149,0.1706 0.0078,0.1706 "/>
    <path class="fil5" d="M0.0688 0.0708l0.007 0.0003 0 -0.0056 -0.0073 -0.0001c-0.0002,0.0022 -0.0005,0.004 0.0003,0.0054z"/>
    <polygon class="fil5" points="0.0609,0.1296 0.0681,0.1297 0.0682,0.124 0.0608,0.124 "/>
    <path class="fil5" d="M0.1445 0.0769l0.0074 -0.0001 -0.0001 -0.0052c-0.0022,-0.0006 -0.0046,-0.0005 -0.0071,-0.0004l-0.0002 0.0057z"/>
    <path class="fil6" d="M0.1288 0.0948l-0.0067 -0.0002 -0.0008 0.0026c-0.0001,0.0016 0.0001,0.0016 -0.0004,0.003l0.0078 0.0001 0.0001 -0.0055z"/>
    <path class="fil5" d="M0.1434 0.0471c0.0011,-0.001 0.0007,-0.0032 0.0007,-0.005l-0.0072 -0.0002c-0.0002,0.0048 -0.0011,0.006 0.0037,0.0057 0.0024,-0.0001 0.0018,0.0001 0.0029,-0.0006z"/>
    <polygon class="fil6" points="0.0685,0.0649 0.0756,0.0651 0.0756,0.0594 0.0684,0.0594 "/>
    <path class="fil5" d="M0.0609 0.03l0.0072 0.0001c0.0004,-0.0037 0.0006,-0.0052 -0.0018,-0.0056l-0.0053 0.0001 -0.0001 0.0054z"/>
    <polygon class="fil5" points="0.152,0.1351 0.1592,0.1355 0.1593,0.1301 0.152,0.13 "/>
    <path class="fil10" d="M0.1746 0.1706l0.0006 0 0.0001 -0.0172 0.0056 -0c0.0011,-0.0001 0.0009,-0.0002 0.0014,-0.0004l-0.0078 0.0001 0.0001 0.0176z"/>
    <path class="fil7" d="M0.0153 0.1593l0.0075 -0.0003 0 -0.0058 -0.0006 -0 -0.0001 0.0052c-0.0019,0.0002 -0.0062,-0.0003 -0.0068,0.0009z"/>
    <path class="fil10" d="M0.0081 0.1766l-0.0002 -0.0059 -0.0078 -0.0001c0.0019,0.0008 0.005,0.0005 0.0071,0.0005l0.0001 0.0045c0.0004,0.0013 -0.0001,0.0002 0.0008,0.001z"/>
    <path class="fil8" d="M0.0685 0.0649l0 0.0005 0.0073 0.0001c0.0004,-0.0019 0.0005,-0.0047 -0.0003,-0.006l0 0.0057 -0.0071 -0.0003z"/>
    <path class="fil8" d="M0.114 0.065c0.0021,0.0009 0.0123,0.0007 0.0149,0.0002l-0.0001 -0.0056 0 0.0056 -0.0148 -0.0002z"/>
    <path class="fil10" d="M0.0071 0.0067c0.0011,-0.001 0.0011,0.0013 0.0007,-0.0016l-0.0001 -0.0042c-0.0001,0.0002 -0.0003,-0.0004 -0.0005,0.0012 -0.0001,0.0004 -0.0001,0.0011 -0.0001,0.0015 -0,0.0011 0,0.002 -0,0.0031z"/>
    <path class="fil11" d="M0.0229 0.0827l-0.0076 0.0001 -0.0001 -0.006 -0.0001 0.0062c0.0026,0.0002 0.006,0.0003 0.0078,-0.0003z"/>
   </g>
   <path class="fil12 str1" d="M0.0082 0.0069l0.0071 0 0 0.1637 -0.0073 0 0 -0.1635c0,-0.0001 0.0001,-0.0002 0.0002,-0.0002z"/>
   <rect class="fil12 str1" x="0.0149" y="0.1706" width="0.1598" height="0.0059"/>
   <rect class="fil12" x="0.0229" y="0.0069" width="0.009" height="0.1464"/>
   <rect class="fil12 str1" x="0.014" y="0.1238" width="0.0098" height="0.0062"/>
   <rect class="fil12 str1" x="0.0143" y="0.0828" width="0.0098" height="0.0118"/>
   <path class="fil12 str1" d="M0.0129 0.1532l0.0098 0 0 0.0057c0,0.0003 -0.0003,0.0006 -0.0006,0.0006l-0.0092 0 0 -0.0062z"/>
   <rect class="fil12 str1" x="0.0142" y="0.071" width="0.0098" height="0.0062"/>
   <rect class="fil12 str1" x="0.0146" y="0.0592" width="0.0098" height="0.0062"/>
   <rect class="fil12 str1" x="0.014" y="0.0299" width="0.0098" height="0.0062"/>
   <rect class="fil12 str1" x="0.0289" y="0.1414" width="0.1455" height="0.0118"/>
   <rect class="fil12 str1" x="0.1668" y="0.0068" width="0.0076" height="0.1462"/>
   <rect class="fil12 str1" x="0.0459" y="0.0713" width="0.0074" height="0.0172"/>
   <rect class="fil12 str1" x="0.038" y="0.1241" width="0.0074" height="0.0115"/>
   <rect class="fil12 str1" x="0.1294" y="0.1124" width="0.0074" height="0.029"/>
   <rect class="fil12 str1" x="0.1217" y="0.1239" width="0.0079" height="0.029"/>
   <rect class="fil12 str1" x="0.0533" y="0.1357" width="0.0074" height="0.0115"/>
   <rect class="fil12 str1" x="0.1522" y="0.1006" width="0.0074" height="0.0172"/>
   <rect class="fil12 str1" x="0.0531" y="0.0476" width="0.0074" height="0.0177"/>
   <rect class="fil12" transform="matrix(3.57684E-15 -0.160554 0.015842 4.98788E-16 0.0455046 0.0534709)" width="0.0373" height="0.9569"/>
   <rect class="fil12 str1" x="0.0374" y="0.0183" width="0.0084" height="0.0179"/>
   <rect class="fil12 str1" transform="matrix(3.91733E-15 -0.226624 0.0172619 7.00469E-16 0.0392834 0.0319366)" width="0.0373" height="0.9569"/>
   <rect class="fil12 str1" x="0.1595" y="0.0297" width="0.0077" height="0.0244"/>
   <rect class="fil12 str1" transform="matrix(2.46278E-15 -0.15362 0.0154049 6.74006E-16 0.144338 0.0302463)" width="0.0373" height="0.9569"/>
   <rect class="fil12 str1" transform="matrix(2.58454E-15 -0.15362 0.0161665 6.74006E-16 0.0984094 0.141587)" width="0.0373" height="0.9569"/>
   <rect class="fil12 str1" x="0.0609" y="0.124" width="0.0078" height="0.0056"/>
   <rect class="fil12 str1" x="0.038" y="0.1008" width="0.0074" height="0.0115"/>
   <rect class="fil12 str1" transform="matrix(5.74975E-15 -0.15362 0.0170082 3.18743E-16 0.0293505 0.106286)" width="0.0373" height="0.9569"/>
   <rect class="fil12 str1" x="0.1517" y="0.13" width="0.0078" height="0.0055"/>
   <rect class="fil12 str1" x="0.1593" y="0.1355" width="0.0078" height="0.0058"/>
   <rect class="fil12 str1" x="0.0301" y="0.0828" width="0.0078" height="0.006"/>
   <rect class="fil12 str1" x="0.1517" y="0.13" width="0.0078" height="0.0055"/>
   <rect class="fil12 str1" x="0.1443" y="0.0713" width="0.0078" height="0.0055"/>
   <rect class="fil12 str1" x="0.1364" y="0.0419" width="0.0078" height="0.0058"/>
   <rect class="fil12 str1" x="0.0607" y="0.0244" width="0.0078" height="0.0058"/>
   <rect class="fil12 str1" x="0.0685" y="0.0654" width="0.0077" height="0.0058"/>
   <rect class="fil1" x="0.0318" y="0.0069" width="0.0066" height="0.006"/>
   <rect class="fil1" x="0.0521" y="0.0069" width="0.0241" height="0.0061"/>
   <rect class="fil1" x="0.0907" y="0.0069" width="0.0084" height="0.006"/>
   <rect class="fil1" x="0.1132" y="0.0069" width="0.0238" height="0.0061"/>
   <rect class="fil1" x="0.1427" y="0.0068" width="0.0173" height="0.0062"/>
   <rect class="fil0 str2" x="0.0654" y="0.0551" width="0.0689" height="0.0508"/>
   <rect class="fil12" x="0.0213" y="0.0069" width="0.0024" height="0.023"/>
   <rect class="fil2 str3" x="0.0071" y="0.0009" width="0.1679" height="0.0063"/>
  </g>
 </g>
</svg>
